<svg width="34" height="36" viewBox="0 0 34 36" fill="none" xmlns="http://www.w3.org/2000/svg">
<g filter="url(#filter0_d_64_191)">
<path d="M25.75 5H23.25V3.75C23.25 3.41848 23.1183 3.10054 22.8839 2.86612C22.6495 2.6317 22.3315 2.5 22 2.5C21.6685 2.5 21.3505 2.6317 21.1161 2.86612C20.8817 3.10054 20.75 3.41848 20.75 3.75V5H13.25V3.75C13.25 3.41848 13.1183 3.10054 12.8839 2.86612C12.6495 2.6317 12.3315 2.5 12 2.5C11.6685 2.5 11.3505 2.6317 11.1161 2.86612C10.8817 3.10054 10.75 3.41848 10.75 3.75V5H8.25C7.25544 5 6.30161 5.39509 5.59835 6.09835C4.89509 6.80161 4.5 7.75544 4.5 8.75V23.75C4.5 24.7446 4.89509 25.6984 5.59835 26.4017C6.30161 27.1049 7.25544 27.5 8.25 27.5H25.75C26.7446 27.5 27.6984 27.1049 28.4017 26.4017C29.1049 25.6984 29.5 24.7446 29.5 23.75V8.75C29.5 7.75544 29.1049 6.80161 28.4017 6.09835C27.6984 5.39509 26.7446 5 25.75 5ZM27 23.75C27 24.0815 26.8683 24.3995 26.6339 24.6339C26.3995 24.8683 26.0815 25 25.75 25H8.25C7.91848 25 7.60054 24.8683 7.36612 24.6339C7.1317 24.3995 7 24.0815 7 23.75V15H27V23.75ZM27 12.5H7V8.75C7 8.41848 7.1317 8.10054 7.36612 7.86612C7.60054 7.6317 7.91848 7.5 8.25 7.5H10.75V8.75C10.75 9.08152 10.8817 9.39946 11.1161 9.63388C11.3505 9.8683 11.6685 10 12 10C12.3315 10 12.6495 9.8683 12.8839 9.63388C13.1183 9.39946 13.25 9.08152 13.25 8.75V7.5H20.75V8.75C20.75 9.08152 20.8817 9.39946 21.1161 9.63388C21.3505 9.8683 21.6685 10 22 10C22.3315 10 22.6495 9.8683 22.8839 9.63388C23.1183 9.39946 23.25 9.08152 23.25 8.75V7.5H25.75C26.0815 7.5 26.3995 7.6317 26.6339 7.86612C26.8683 8.10054 27 8.41848 27 8.75V12.5Z" fill="black"/>
</g>
<defs>
<filter id="filter0_d_64_191" x="-2" y="0" width="38" height="38" filterUnits="userSpaceOnUse" color-interpolation-filters="sRGB">
<feFlood flood-opacity="0" result="BackgroundImageFix"/>
<feColorMatrix in="SourceAlpha" type="matrix" values="0 0 0 0 0 0 0 0 0 0 0 0 0 0 0 0 0 0 127 0" result="hardAlpha"/>
<feOffset dy="4"/>
<feGaussianBlur stdDeviation="2"/>
<feComposite in2="hardAlpha" operator="out"/>
<feColorMatrix type="matrix" values="0 0 0 0 0 0 0 0 0 0 0 0 0 0 0 0 0 0 0.25 0"/>
<feBlend mode="normal" in2="BackgroundImageFix" result="effect1_dropShadow_64_191"/>
<feBlend mode="normal" in="SourceGraphic" in2="effect1_dropShadow_64_191" result="shape"/>
</filter>
</defs>
</svg>
